<?xml version="1.0" encoding="UTF-8"?>
<svg version="1.1" xmlns="http://www.w3.org/2000/svg" width="1920" height="1920">
<path d="M0 0 C633.6 0 1267.2 0 1920 0 C1920 633.6 1920 1267.2 1920 1920 C1286.4 1920 652.8 1920 0 1920 C0 1286.4 0 652.8 0 0 Z " fill="#FEFEFE" transform="translate(0,0)"/>
<path d="M0 0 C2.67744427 1.26997595 5.03324173 2.65102386 7.3984375 4.43359375 C8.35387451 5.15107788 8.35387451 5.15107788 9.32861328 5.88305664 C10.0039209 6.39602295 10.67922852 6.90898926 11.375 7.4375 C12.08253418 7.97173584 12.79006836 8.50597168 13.51904297 9.05639648 C19.83296727 13.83947998 26.06857883 18.71891935 32.27783203 23.63671875 C43.14121153 32.23625251 54.08471588 40.72696313 65.1015625 49.12890625 C72.43267918 54.72184552 79.73857168 60.34108272 86.97900391 66.05102539 C94.29595079 71.81802033 101.69377126 77.47939121 109.1015625 83.12890625 C116.31330815 88.63062504 123.50406177 94.15401655 130.62744141 99.76977539 C135.34345794 103.48742818 140.07374164 107.18637639 144.8125 110.875 C145.56208984 111.45862305 146.31167969 112.04224609 147.08398438 112.64355469 C150.9820614 115.67298409 154.89175261 118.68596723 158.8203125 121.67578125 C159.59528076 122.26568848 160.37024902 122.8555957 161.16870117 123.46337891 C162.6463876 124.58631247 164.12564108 125.70718786 165.60668945 126.82568359 C166.27144287 127.3305127 166.93619629 127.8353418 167.62109375 128.35546875 C168.2030249 128.79528076 168.78495605 129.23509277 169.38452148 129.68823242 C169.91762939 130.12111572 170.4507373 130.55399902 171 131 C171.78105849 131.55472251 171.78105849 131.55472251 172.57789594 132.12065154 C174.74402096 134.98324355 174.40727673 137.93398153 174.36914349 141.38134289 C174.37260502 142.14288421 174.37606655 142.90442552 174.37963298 143.68904385 C174.38762531 146.26173664 174.37407268 148.83387536 174.36076355 151.40653992 C174.36207079 153.26116579 174.36469571 155.11579113 174.36853105 156.97041351 C174.37526394 162.08301246 174.36320493 167.19542417 174.34819686 172.30799925 C174.33528104 177.81515552 174.3396228 183.32230063 174.34190369 188.82946777 C174.34347925 198.37639062 174.33404053 207.92325212 174.31719017 217.47015953 C174.292843 231.27349642 174.28499929 245.07680355 174.2812262 258.88015959 C174.27465498 281.27339423 174.25470136 303.66659897 174.22631836 326.05981445 C174.19877334 347.81697422 174.17756917 369.57412517 174.16479492 391.33129883 C174.163983 392.69903102 174.16317088 394.0667632 174.16235858 395.43449539 C174.15610204 406.02357673 174.15024971 416.61265828 174.14449489 427.20173991 C174.11617704 479.1345233 174.05582613 531.06722482 174 583 C88.2 583 2.4 583 -86 583 C-86 712.69 -86 842.38 -86 976 C-89.63179254 974.54728298 -92.26496198 973.33490636 -95.45703125 971.26953125 C-96.30998779 970.72151855 -97.16294434 970.17350586 -98.04174805 969.60888672 C-98.95609619 969.0160791 -99.87044434 968.42327148 -100.8125 967.8125 C-102.79368908 966.53945876 -104.77548127 965.26735575 -106.7578125 963.99609375 C-107.78422852 963.33722168 -108.81064453 962.67834961 -109.86816406 961.99951172 C-114.95140022 958.7541341 -120.06886695 955.56414993 -125.1875 952.375 C-131.49359376 948.44289977 -137.79693396 944.5072749 -144.07421875 940.52929688 C-145.36779297 939.71041992 -145.36779297 939.71041992 -146.6875 938.875 C-147.63223449 938.24433888 -147.63223449 938.24433888 -148.59605453 937.60093714 C-152.75738682 934.87517478 -156.80659102 932.58180069 -161.40966076 930.68297946 C-168.2862711 927.61580435 -175.23885981 924.3283045 -178.21409364 917.01615635 C-180.09068093 908.4704535 -179.85967223 899.74091625 -179.69161728 891.0413431 C-179.63719362 887.01697869 -179.7051063 882.99430274 -179.75706142 878.97016132 C-179.83123675 871.92406022 -179.82763754 864.88135584 -179.77248001 857.83512878 C-179.69068781 847.35778897 -179.7292113 836.88327038 -179.79118814 826.40591839 C-179.89785032 807.69259042 -179.88462146 788.98078966 -179.82048944 770.26735264 C-179.76465942 753.88994958 -179.74831832 737.51310025 -179.77119255 721.1356163 C-179.77265151 720.04901822 -179.77411048 718.96242014 -179.77561365 717.84289484 C-179.78157006 713.43194967 -179.78768529 709.02100477 -179.79405497 704.61006017 C-179.85307752 663.23448802 -179.79045311 621.85988035 -179.67278426 580.48447612 C-179.56900798 543.73348235 -179.57081306 506.9839263 -179.66235352 470.23291016 C-179.7648286 428.93588396 -179.80288279 387.63964251 -179.73584694 346.34251583 C-179.72886589 341.9390158 -179.7220321 337.53551557 -179.71525383 333.13201523 C-179.71352578 332.0477748 -179.71179773 330.96353437 -179.71001732 329.84643817 C-179.68503402 313.4816232 -179.70894666 297.11734824 -179.75647163 280.75259781 C-179.81020484 262.14092102 -179.79214363 243.53084006 -179.67980469 224.9193932 C-179.61893647 214.50559718 -179.61278685 204.09520706 -179.68607819 193.68147184 C-179.72948855 186.72095174 -179.69988184 179.76318294 -179.61144377 172.80309642 C-179.56307492 168.838384 -179.54560594 164.88043631 -179.61691803 160.91591598 C-179.99665332 138.12706098 -179.99665332 138.12706098 -175.06278209 131.33201823 C-170.45210106 126.74378432 -165.27122139 123.52083298 -159.56445312 120.46700941 C-155.35165406 118.05705471 -151.68754065 114.99967778 -147.9375 111.9375 C-141.09848228 106.56513747 -134.13214689 101.3862689 -127.11181641 96.25415039 C-120.83736269 91.65284144 -114.68623796 86.90872105 -108.56079102 82.11157227 C-103.07812547 77.82254311 -97.53555318 73.62273347 -91.95703125 69.45947266 C-87.21819103 65.92053108 -82.50745576 62.34694191 -77.8125 58.75 C-77.11543945 58.21608643 -76.41837891 57.68217285 -75.70019531 57.13208008 C-74.23921767 56.01291047 -72.77828127 54.89368703 -71.31738281 53.77441406 C-59.24695958 44.53212202 -47.14314085 35.33689373 -34.96875 26.23193359 C-30.34753127 22.77246861 -25.75030896 19.28608776 -21.1875 15.75 C-14.22428422 10.36438779 -7.11797591 5.17849976 0 0 Z " fill="#000000" transform="translate(963,472)"/>
<path d="M0 0 C5.61890293 2.24756117 5.61890293 2.24756117 8.390625 4.3984375 C9.3175415 5.10794556 9.3175415 5.10794556 10.26318359 5.83178711 C10.91883301 6.34104736 11.57448242 6.85030762 12.25 7.375 C17.88322961 11.67630167 23.56850134 15.87295094 29.375 19.9375 C35.28458809 24.07855495 41.15791038 28.26420167 47 32.5 C52.80553095 36.70704228 58.63522 40.8759547 64.5 45 C72.62797303 50.71773198 80.68666362 56.52824325 88.73388672 62.35888672 C92.486448 65.07648173 96.24343419 67.78794473 100 70.5 C101.50002146 71.58330362 103.00002146 72.66663696 104.5 73.75 C105.2425 74.28625 105.985 74.8225 106.75 75.375 C113.5 80.25 113.5 80.25 115.74975586 81.875 C117.25034655 82.95864236 118.75116054 84.04197556 120.25219727 85.125 C123.99504887 87.82611897 127.73391079 90.5324371 131.46484375 93.25 C139.16852997 98.85214552 146.9259322 104.34521438 154.8125 109.6875 C161.23641509 114.04115777 167.41359063 118.56513004 173.51953125 123.35546875 C177.77810305 126.64187919 182.20637978 129.68431921 186.625 132.75 C193.38894654 137.44320714 200.07660049 142.21843058 206.6875 147.125 C214.67235472 153.04792207 222.7517483 158.81944648 230.89404297 164.5234375 C234.49719162 167.04973509 238.09214289 169.58763237 241.6875 172.125 C242.31543457 172.56730957 242.94336914 173.00961914 243.59033203 173.46533203 C244.88731423 174.3799764 246.16598125 175.32107718 247.42625427 176.28567505 C250.04490009 178.14593277 250.04490009 178.14593277 253.45274353 179.45623779 C257.8623141 181.51927091 261.3676476 183.81985735 264 188 C266.48901968 196.8091285 265.67594813 206.39017463 265.41951513 215.46665049 C265.33147671 219.11110118 265.32373368 222.75574259 265.30715942 226.40109253 C265.26379151 233.29067207 265.14912578 240.17710944 265.00826657 247.06531036 C264.82191345 256.38223546 264.74683329 265.70003142 264.66523552 275.01835251 C264.53392651 289.68125146 264.25496442 304.33752252 264 319 C232.98 319 201.96 319 170 319 C171.125 287.5625 171.125 287.5625 171.68408203 277.74829102 C172.28745653 263.56033636 172.28745653 263.56033636 166.60348511 251.05126953 C160.44792753 245.72527311 153.5221313 242.09038757 146.21472168 238.58529663 C141.96927298 236.49171087 138.15126884 233.96513018 134.26953125 231.2734375 C133.00298822 230.43655628 131.73415521 229.60312887 130.46289062 228.7734375 C128.63476835 227.57238527 126.80672879 226.37120734 124.97875977 225.16992188 C112.67190365 217.08325465 100.3347608 209.04440922 88 201 C88 307.92 88 414.84 88 525 C97.3835554 518.17689134 97.3835554 518.17689134 106.6875 511.25 C108.06638946 510.21351933 109.44529621 509.17706166 110.82421875 508.140625 C111.8613501 507.36041992 111.8613501 507.36041992 112.91943359 506.56445312 C116.27714669 504.03966721 119.63871887 501.52003254 123 499 C124.33335288 498.00002606 125.66668619 497.00002603 127 496 C135 490 135 490 137.00268555 488.49804688 C138.32714529 487.50466159 139.65152765 486.51117312 140.97583008 485.51757812 C144.44428015 482.9154926 147.91432129 480.31556613 151.38671875 477.71875 C152.10666016 477.17992187 152.82660156 476.64109375 153.56835938 476.0859375 C154.94025567 475.05922801 156.31262119 474.03314507 157.68554688 473.0078125 C160.45046097 470.93770102 163.16988448 468.85940595 165.83203125 466.65625 C168 465 168 465 170 465 C170 440.91 170 416.82 170 392 C201.35 392 232.7 392 265 392 C265.64261869 422.96618833 265.64261869 422.96618833 265.80406189 438.32441044 C265.89254413 446.61320206 266.00463656 454.89940222 266.20703125 463.1862793 C266.36727369 469.7504378 266.46990281 476.31263713 266.50541592 482.87869722 C266.52615994 486.35187594 266.57431487 489.81945439 266.69168091 493.29082298 C267.43177438 516.04641656 267.43177438 516.04641656 261.49743652 522.54397583 C258.21178436 525.48047957 254.70404244 527.81513728 250.85671711 529.94977188 C248.47595269 531.29642061 246.39425135 532.92596143 244.28125 534.65625 C243.02233637 535.60616192 241.76196546 536.55414622 240.5 537.5 C234.16541444 542.29663716 227.9619302 547.22945895 221.81298828 552.26123047 C214.72285295 558.06001723 207.51094534 563.69831353 200.29101562 569.33398438 C193.45050602 574.67691377 186.66024217 580.07184612 179.9375 585.5625 C175.15607379 589.4667889 170.34576852 593.31875117 165.4375 597.0625 C160.76317404 600.62883758 156.14666279 604.25606465 151.5625 607.9375 C144.98796165 613.21736003 138.37180748 618.44125265 131.73388672 623.64111328 C128.23472646 626.38348529 124.74017645 629.1317327 121.24536133 631.87963867 C118.35679895 634.15034395 115.46611439 636.41821985 112.5703125 638.6796875 C106.30612909 643.5773341 100.09612058 648.5325802 93.9375 653.5625 C89.15607379 657.4667889 84.34576852 661.31875117 79.4375 665.0625 C74.11865514 669.12058164 68.88252647 673.27044628 63.66699219 677.46020508 C59.36129613 680.91708612 55.03380574 684.34433483 50.6875 687.75 C46.77646482 690.81482252 42.87514377 693.88977042 39 697 C33.31997038 701.55701723 27.58864137 706.04794879 21.85839844 710.54150391 C19.94857813 712.04035658 18.04046253 713.54135506 16.1328125 715.04296875 C15.50342773 715.53821045 14.87404297 716.03345215 14.22558594 716.54370117 C13.02286734 717.49016772 11.82038035 718.43692869 10.61816406 719.3840332 C9.08142567 720.59273183 7.54087175 721.7965751 6 723 C4.87464844 723.8971875 4.87464844 723.8971875 3.7265625 724.8125 C2 726 2 726 0 726 C0 486.42 0 246.84 0 0 Z " fill="#000000" transform="translate(1198,640)"/>
<path d="M0 0 C0 230.67 0 461.34 0 699 C-4.38224337 698.12355133 -6.09449984 697.56820985 -9.6328125 695.26171875 C-10.51155029 694.69501465 -11.39028809 694.12831055 -12.2956543 693.54443359 C-13.22933838 692.93164551 -14.16302246 692.31885742 -15.125 691.6875 C-17.11304461 690.40197772 -19.10132998 689.1168277 -21.08984375 687.83203125 C-22.08483887 687.18572754 -23.07983398 686.53942383 -24.10498047 685.87353516 C-28.27771474 683.17311664 -32.48063926 680.52181471 -36.6875 677.875 C-38.25010725 676.88949294 -39.81260759 675.90381636 -41.375 674.91796875 C-42.14070312 674.43505371 -42.90640625 673.95213867 -43.6953125 673.45458984 C-45.98545164 672.00918211 -48.27419657 670.56159316 -50.5625 669.11328125 C-63.3440216 661.02582228 -76.16904797 653.00874343 -89 645 C-100.94291393 637.54554664 -112.88256977 630.08702029 -124.77856445 622.55786133 C-131.17116796 618.51521203 -137.58379875 614.50506888 -144 610.5 C-151.94092963 605.54317759 -159.86756829 600.56495249 -167.77734375 595.55859375 C-174.17039752 591.51576885 -180.58339613 587.5053202 -187 583.5 C-194.94092963 578.54317759 -202.86756829 573.56495249 -210.77734375 568.55859375 C-217.17039896 564.51576794 -223.58353437 560.50554361 -230 556.5 C-245.13371951 547.04670732 -245.13371951 547.04670732 -252.5625 542.375 C-253.69461914 541.66633789 -253.69461914 541.66633789 -254.84960938 540.94335938 C-255.56052734 540.49541016 -256.27144531 540.04746094 -257.00390625 539.5859375 C-257.61049072 539.2048584 -258.2170752 538.8237793 -258.84204102 538.43115234 C-259.55416748 537.95887207 -260.26629395 537.4865918 -261 537 C-262.1804807 536.4142432 -263.3609614 535.8284864 -264.57721424 535.2249794 C-267.08885232 533.39988367 -267.89049256 532.43317694 -268.6596216 529.39074469 C-268.92281317 525.90108177 -268.95644482 522.46884503 -268.92253113 518.96917725 C-268.93417877 517.61418836 -268.94885991 516.25922272 -268.96631223 514.90429616 C-269.00526738 511.18151503 -269.00045406 507.45987797 -268.98836792 503.7369597 C-268.98282746 499.72169297 -269.01739773 495.70674114 -269.0466156 491.69160461 C-269.09705706 483.82511073 -269.1088588 475.95901316 -269.10585221 468.09237519 C-269.1037129 461.69759336 -269.1133708 455.30293623 -269.13140297 448.90818024 C-269.18701217 428.80114459 -269.20145587 408.69449237 -269.18479893 388.58739248 C-269.1732449 372.72778745 -269.22444271 356.8691005 -269.30478211 341.00971839 C-269.38663455 324.72483092 -269.42386109 308.44038445 -269.41375428 292.15528703 C-269.40893358 283.01257779 -269.42215232 273.87073453 -269.48271751 264.72820282 C-269.53387038 256.9430761 -269.54319183 249.15927568 -269.49860891 241.3740851 C-269.47703406 237.40251801 -269.47464808 233.43343442 -269.52467346 229.46206856 C-269.57001996 225.82231211 -269.5594893 222.18705599 -269.5052977 218.54745987 C-269.49073011 216.61465277 -269.53497659 214.68167541 -269.58161038 212.74937606 C-269.45144225 207.39271165 -269.21236743 204.26251916 -265.41079009 200.3036828 C-262.3627525 197.9994074 -259.26076288 195.98760632 -256 194 C-254.26192662 192.71327666 -252.53625209 191.40936029 -250.83203125 190.078125 C-250.01049561 189.45196289 -249.18895996 188.82580078 -248.3425293 188.18066406 C-247.50761963 187.54354492 -246.67270996 186.90642578 -245.8125 186.25 C-244.91249268 185.56389648 -244.01248535 184.87779297 -243.08520508 184.17089844 C-238.86342306 180.95153336 -234.64409934 177.72900775 -230.4296875 174.5 C-229.01564515 173.41664036 -227.60158316 172.33330637 -226.1875 171.25 C-225.49881836 170.72237061 -224.81013672 170.19474121 -224.10058594 169.65112305 C-219.44467532 166.08971534 -214.76020597 162.56851917 -210.0625 159.0625 C-201.90153553 152.97016661 -193.87016602 146.71454937 -185.85253906 140.43530273 C-185.24120117 139.96165283 -184.62986328 139.48800293 -184 139 C-183.30358398 138.44449463 -182.60716797 137.88898926 -181.88964844 137.31665039 C-180 136 -180 136 -178 136 C-178 135.34 -178 134.68 -178 134 C-177.34 134 -176.68 134 -176 134 C-176 247.52 -176 361.04 -176 478 C-174.35 478.66 -172.7 479.32 -171 480 C-169.71166189 480.72765284 -168.44374816 481.49269361 -167.19921875 482.29296875 C-166.48185547 482.75058594 -165.76449219 483.20820312 -165.02539062 483.6796875 C-164.25388672 484.17726563 -163.48238281 484.67484375 -162.6875 485.1875 C-160.98349013 486.27539336 -159.27904188 487.36260028 -157.57421875 488.44921875 C-156.67106934 489.02591309 -155.76791992 489.60260742 -154.83740234 490.19677734 C-149.91043606 493.32795726 -144.95398979 496.41182428 -140 499.5 C-132.01961853 504.47927725 -124.05015717 509.47472963 -116.1171875 514.52929688 C-110.67707556 517.9812763 -105.18238676 521.3417121 -99.68310547 524.69824219 C-98.84746567 525.20858002 -98.01182587 525.71891785 -97.15086365 526.24472046 C-95.10072425 527.49672377 -93.05043228 528.74847644 -91 530 C-91.00455664 529.0258395 -91.00911329 528.051679 -91.01380801 527.04799849 C-91.28272611 469.32928257 -91.48822098 411.61059034 -91.61278395 353.89137909 C-91.62775194 346.96314808 -91.64331059 340.03491845 -91.65917969 333.10668945 C-91.6607488 332.41724896 -91.6623179 331.72780847 -91.66393456 331.01747584 C-91.71506702 308.67235294 -91.80519937 286.32759428 -91.91556665 263.98269202 C-92.03199157 240.36846042 -92.10395555 216.75455262 -92.12906194 193.14002174 C-92.14553915 178.99327682 -92.19760448 164.84757759 -92.2949976 150.70115452 C-92.35836168 141.00434277 -92.37761684 131.30807268 -92.36201653 121.61106885 C-92.35431918 116.01342482 -92.36622971 110.41760955 -92.4304657 104.82028961 C-92.48885524 99.69502512 -92.49182828 94.57281882 -92.45078674 89.44741368 C-92.44571482 87.59390679 -92.46095709 85.74020933 -92.49859819 83.88707776 C-92.76334826 70.04788692 -92.76334826 70.04788692 -88.40872431 64.99058902 C-85.37075832 62.68599248 -82.33623108 60.83591739 -79 59 C-77.30295093 57.75637797 -75.6228339 56.48877 -73.97265625 55.18359375 C-72.77092773 54.26731201 -72.77092773 54.26731201 -71.54492188 53.33251953 C-70.72572266 52.70716309 -69.90652344 52.08180664 -69.0625 51.4375 C-67.240904 50.04815272 -65.41928884 48.65883056 -63.59765625 47.26953125 C-62.6761377 46.56650879 -61.75461914 45.86348633 -60.80517578 45.13916016 C-58.01569494 43.01196859 -55.22489126 40.88652578 -52.43359375 38.76171875 C-41.45032457 30.40238399 -41.45032457 30.40238399 -30.5 22 C-24.61369625 17.46669077 -18.7159772 12.9484231 -12.8125 8.4375 C-11.87792969 7.72142578 -10.94335938 7.00535156 -9.98046875 6.26757812 C-9.10648438 5.60048828 -8.2325 4.93339844 -7.33203125 4.24609375 C-6.15217651 3.34395142 -6.15217651 3.34395142 -4.94848633 2.42358398 C-1.63128108 0 -1.63128108 0 0 0 Z " fill="#000000" transform="translate(726,653)"/>
<path d="M0 0 C3.24655787 1.25002868 5.75528612 3.52108575 8.42089844 5.70117188 C9.67820394 6.70961681 10.9360279 7.71741565 12.19433594 8.72460938 C12.82823242 9.23475586 13.46212891 9.74490234 14.11523438 10.27050781 C16.89663039 12.4935891 19.71833401 14.66231645 22.54589844 16.82617188 C23.62663309 17.6555918 24.70736227 18.48501888 25.78808594 19.31445312 C26.85316873 20.13088726 27.91827261 20.94729389 28.98339844 21.76367188 C35.57282584 26.81891962 42.1493342 31.88908296 48.69873047 36.99609375 C54.53301503 41.5450637 60.36976176 46.08474697 66.29589844 50.51367188 C67.15575253 51.18880136 68.01560663 51.86393085 68.90151691 52.55951881 C71.91590263 54.85157381 71.91590263 54.85157381 75.33068371 56.3581295 C79.4745855 58.63758282 82.53320583 60.65529089 84.98339844 64.76367188 C87.35494025 73.29486677 86.66134668 82.50946402 86.49225152 91.28722501 C86.43584043 94.961237 86.45512774 98.63497211 86.46498108 102.30929565 C86.47178129 108.66683991 86.43117526 115.02264305 86.35788918 121.3797493 C86.25200418 130.57061418 86.21835762 139.76064157 86.20204528 148.95205025 C86.1736287 163.86580837 86.0872139 178.77863945 85.96411133 193.69189453 C85.84469017 208.17427014 85.75286671 222.65639221 85.69750977 237.13916016 C85.6940258 238.04173109 85.69054183 238.94430202 85.68695229 239.87422359 C85.65991805 246.93345933 85.63447865 253.99270059 85.60954297 261.05194402 C85.4870168 295.62337099 85.22545888 330.19247596 84.98339844 364.76367188 C28.88339844 364.76367188 -27.21660156 364.76367188 -85.01660156 364.76367188 C-85.4602464 289.59051848 -85.4602464 289.59051848 -85.55371094 258.20703125 C-85.57524728 251.02367885 -85.59747251 243.84032908 -85.62084961 236.65698242 C-85.62375085 235.75667673 -85.62665208 234.85637104 -85.62964123 233.92878336 C-85.67747374 219.3971409 -85.76418932 204.86597763 -85.86528232 190.33461923 C-85.96817857 175.41957199 -86.02925411 160.50477545 -86.05157501 145.58938783 C-86.06666295 136.38673248 -86.114298 127.18543093 -86.2036827 117.98319238 C-86.26186596 111.67133718 -86.27939502 105.36018096 -86.26511671 99.04807711 C-86.25807535 95.40662983 -86.26879913 91.76754609 -86.32786179 88.12652016 C-86.39149934 84.17450683 -86.36943584 80.22555563 -86.33940125 76.27308655 C-86.3714425 75.12812668 -86.40348376 73.98316682 -86.43649596 72.8035112 C-86.33378426 67.80231047 -86.04898115 64.91211521 -82.63168681 61.11063659 C-79.84916844 58.81170352 -77.01680981 56.76674617 -74.01660156 54.76367188 C-72.56286029 53.65089986 -71.11557395 52.52952968 -69.68066406 51.39257812 C-68.33572333 50.3685836 -66.98936104 49.34645358 -65.64160156 48.32617188 C-64.16363363 47.20130766 -62.68576993 46.07630647 -61.20800781 44.95117188 C-60.13703857 44.13712891 -60.13703857 44.13712891 -59.04443359 43.30664062 C-51.07573907 37.24329493 -43.16564541 31.10476558 -35.26660156 24.95117188 C-29.13774796 20.17891795 -22.9952555 15.42515361 -16.82910156 10.70117188 C-16.14686523 10.17740967 -15.46462891 9.65364746 -14.76171875 9.11401367 C-13.47266825 8.12842847 -12.17969413 7.14794781 -10.88232422 6.17333984 C-9.61402905 5.215065 -8.35877401 4.23933617 -7.11572266 3.24853516 C-2.52449484 -0.29584879 -2.52449484 -0.29584879 0 0 Z " fill="#FDFDFD" transform="translate(962.0166015625,587.236328125)"/>
<path d="M0 0 C0.66 0.33 1.32 0.66 2 1 C0.02 3.31 -1.96 5.62 -4 8 C-4.99 7.34 -5.98 6.68 -7 6 C-4.69 4.02 -2.38 2.04 0 0 Z " fill="#DADADA" transform="translate(1412,1197)"/>
<path d="M0 0 C0 2 0 2 -1.375 3.5 C-1.91125 3.995 -2.4475 4.49 -3 5 C-3.66 5.66 -4.32 6.32 -5 7 C-5.66 6.01 -6.32 5.02 -7 4 C-2.25 0 -2.25 0 0 0 Z " fill="#1B1B1B" transform="translate(834,571)"/>
</svg>
